<svg width="25" height="25" viewBox="0 0 25 25" fill="none" xmlns="http://www.w3.org/2000/svg">
<path d="M18.472 15.8693C18.472 16.3838 18.1975 16.8592 17.7519 17.1165L12.9561 19.8854C12.5105 20.1426 11.9615 20.1426 11.5159 19.8854L6.72007 17.1165C6.27449 16.8592 6 16.3838 6 15.8693L6 10.3315C6 9.81695 6.27449 9.34152 6.72007 9.08427L11.5159 6.31537C11.9615 6.05812 12.5105 6.05812 12.9561 6.31537L17.7519 9.08427C18.1975 9.34152 18.472 9.81695 18.472 10.3315L18.472 15.8693Z" stroke="white" stroke-width="1.25"/>
<path d="M12.123 19.5006L12.1235 12.6255M12.1235 12.6255L17.7471 9.50014M12.1235 12.6255L6.49707 9.50024" stroke="white" stroke-width="1.25" stroke-linecap="round" stroke-linejoin="round"/>
</svg>
