<svg width="20" height="21" viewBox="0 0 20 21" fill="none" xmlns="http://www.w3.org/2000/svg">
<path d="M10.5 5.5C10.5 5.22386 10.2761 5 10 5C9.72386 5 9.5 5.22386 9.5 5.5L10.5 5.5ZM9.64645 11.8536C9.84171 12.0488 10.1583 12.0488 10.3536 11.8536L13.5355 8.67157C13.7308 8.47631 13.7308 8.15973 13.5355 7.96447C13.3403 7.7692 13.0237 7.7692 12.8284 7.96447L10 10.7929L7.17157 7.96447C6.97631 7.7692 6.65973 7.7692 6.46447 7.96447C6.2692 8.15973 6.2692 8.47631 6.46447 8.67157L9.64645 11.8536ZM9.5 5.5L9.5 11.5L10.5 11.5L10.5 5.5L9.5 5.5Z" fill="white"/>
<path d="M5 11.5V13C5 14.1046 5.89543 15 7 15H13C14.1046 15 15 14.1046 15 13V11.5" stroke="white" stroke-linecap="round"/>
</svg>
