<svg width="165" height="22" viewBox="0 0 165 22" fill="none" xmlns="http://www.w3.org/2000/svg">
<g clip-path="url(#clip0_2836_362)">
<path d="M52.7442 11.2852C52.7693 14.1076 51.668 16.832 49.6382 18.8493C48.0601 20.4878 45.6538 22 42.1212 22C35.8959 22 29.1245 14.9648 28.6875 14.4849C28.968 14.2443 29.244 14.0096 29.5245 13.7779L29.5304 13.7719C29.8183 13.5387 30.2316 13.5417 30.5151 13.7823C30.5594 13.8209 30.6007 13.8551 30.6332 13.8833C30.8398 14.072 31.0613 14.277 31.2945 14.4924C33.3657 16.4057 36.4953 19.2964 40.1623 20.1075C40.1682 20.1075 40.1741 20.1105 40.18 20.1119C40.7232 20.2263 41.2665 20.2961 41.8894 20.3288C41.9249 20.3318 41.9588 20.3318 41.9943 20.3318H42.1906C44.5673 20.3318 46.8038 19.3855 48.4926 17.6654C50.177 15.9481 51.0893 13.6843 51.0598 11.2926C51.0421 8.88764 50.0958 6.60891 48.3923 4.87238C46.6783 3.12694 44.4197 2.15692 42.0341 2.14058H41.8954C41.8629 2.14058 41.8289 2.14058 41.795 2.14355C41.237 2.17177 40.7026 2.22971 40.1637 2.31884C40.1372 2.32329 40.1121 2.32775 40.087 2.33221C36.3669 3.10763 33.255 5.99986 31.1941 7.91465C31.0052 8.08994 30.8251 8.2578 30.6538 8.41674C30.6184 8.44497 30.5771 8.4821 30.5284 8.5237C30.2434 8.76583 29.8272 8.77623 29.5334 8.54449C29.5334 8.54449 29.529 8.54152 29.529 8.54004C29.2942 8.3395 29.058 8.13599 28.8218 7.92951C31.4362 5.29723 35.0855 1.67414 39.7681 0.696689C46.0569 -0.714519 52.697 4.25294 52.7471 11.2867L52.7442 11.2852Z" fill="#A6D3FF"/>
<path d="M78.0532 11.0401H85.9408V11.5675C85.9408 16.6835 83.1625 20.8755 77.7905 20.8755C72.4185 20.8755 69.3789 17.0251 69.3789 11.1723C69.3789 5.31951 72.4716 1.57313 77.7905 1.57313C81.7468 1.57313 83.8962 3.68251 85.1023 6.37272L82.823 7.37394C81.8265 5.00014 79.9665 3.68251 77.792 3.68251C74.0969 3.68251 71.8693 6.50345 71.8693 11.1708C71.8693 15.8382 74.0969 18.7646 77.792 18.7646C80.675 18.7646 82.9543 16.5765 83.4518 13.148H78.0532V11.0386V11.0401Z" fill="white"/>
<path d="M89.9222 1.96975V4.34355H87.668V1.96975H89.9222ZM89.9222 7.24321V20.4284H87.668V7.24321H89.9222Z" fill="white"/>
<path d="M93.2217 16.5245V9.22039H91.3867V7.24322H93.2217V4.39555H95.4759V7.24322H99.3288V9.22039H95.4759V16.6032C95.4759 18.4497 96.865 18.8448 99.354 18.3175V20.4269C96.8119 21.033 93.2217 20.822 93.2217 16.5245Z" fill="white"/>
<path d="M103.864 18.3175H111.305V20.4269H101.609V1.96975H103.864V18.319V18.3175Z" fill="white"/>
<path d="M114.918 1.96975V4.34355H112.664V1.96975H114.918ZM114.918 7.24321V20.4284H112.664V7.24321H114.918Z" fill="white"/>
<path d="M119.007 7.24321V5.71317C119.007 1.41567 122.598 1.28346 125.14 2.02174V4.13113C122.651 3.47157 121.262 3.78798 121.262 5.63444V7.24321H125.115V9.3526H121.262V20.4284H119.007V9.3526H116.648V7.24321H119.007Z" fill="white"/>
<path d="M125.559 13.8625C125.559 9.53828 128.493 6.90155 132.215 6.90155C136.171 6.90155 138.583 9.53828 138.583 13.8625V14.4686H128.076C128.259 17.1841 129.726 18.7408 132.216 18.7408C133.893 18.7408 135.125 17.9238 135.911 16.578L138.061 17.5005C136.435 20.0585 134.261 20.8502 132.216 20.8502C128.18 20.8502 125.56 18.2135 125.56 13.8625H125.559ZM135.988 12.3592C135.621 10.2498 134.468 9.06293 132.215 9.06293C129.962 9.06293 128.625 10.2498 128.179 12.3592H135.988Z" fill="white"/>
<path d="M165 1.96975V4.34355H162.746V1.96975H165ZM165 4.34355V20.4284H162.746V4.34207H165V4.34355Z" fill="#E8E8E8"/>
<path d="M145.548 20.4224L152.255 2.23268H154.481L161.285 20.4224H158.893L157.482 16.5022H149.18L147.78 20.4224H145.547H145.548ZM149.948 14.2978H156.679L153.296 4.81742L149.948 14.2978Z" fill="#E8E8E8"/>
<path d="M49.127 11.3134C49.1787 15.3109 45.9074 18.6027 41.9614 18.576H41.8049C41.3119 18.5492 40.8439 18.4972 40.3508 18.3932C36.6898 17.5837 33.4435 14.2636 31.3916 12.4097C30.5354 11.6774 29.8858 11.156 29.4961 11.156C29.8858 11.156 30.5339 10.6331 31.4167 9.87549C33.417 8.04686 36.6101 4.80702 40.246 4.04942C40.714 3.97069 41.1805 3.9187 41.7001 3.89345H41.83C45.804 3.92019 49.1005 7.28926 49.127 11.3134Z" fill="#0310B4"/>
<path d="M29.497 11.1561C29.0291 11.1561 28.4061 11.5735 27.575 12.2539C22.4864 16.4593 17.6827 21.9986 10.9836 21.9986C4.98567 21.9481 0.0520978 16.9584 0.000429699 10.9229C-0.0527147 4.9126 4.83066 -0.0533699 10.802 0.000107481H11.0353C17.5012 0.234814 22.3816 5.64346 27.575 10.0598C28.4061 10.7119 29.0305 11.1561 29.497 11.1561Z" fill="#0310B4"/>
</g>
<defs>
<clipPath id="clip0_2836_362">
<rect width="165" height="22" fill="white"/>
</clipPath>
</defs>
</svg>
