<svg width="25" height="25" viewBox="0 0 25 25" fill="none" xmlns="http://www.w3.org/2000/svg">
<path d="M18 8.5C18 9.60457 15.9162 10.5 12 10.5C8.0838 10.5 6 9.60457 6 8.5C6 7.39543 8.0838 6.5 12 6.5C15.9162 6.5 18 7.39543 18 8.5Z" stroke="white" stroke-width="1.25"/>
<path d="M6 8.5L6 12.5C6 13.8255 8.0838 14.9 12 14.9C15.9162 14.9 18 13.8255 18 12.5V8.5" stroke="white" stroke-width="1.25"/>
<path d="M15.6168 12.2331C15.1406 12.3498 14.6011 12.4404 14 12.5" stroke="white" stroke-width="1.25" stroke-linecap="round"/>
<path d="M15.6168 16.7331C15.1406 16.8498 14.6011 16.9404 14 17" stroke="white" stroke-width="1.25" stroke-linecap="round"/>
<path d="M6 12.5L6 17C6 18.1046 8.0838 19.5 12 19.5C15.9162 19.5 18 18.1046 18 17V12.5" stroke="white" stroke-width="1.25"/>
</svg>
