<svg width="12" height="11" viewBox="0 0 12 11" fill="none" xmlns="http://www.w3.org/2000/svg">
<path d="M5.57101 3.25702C5.66133 3.40772 5.82411 3.49997 5.9998 3.5C6.17549 3.50003 6.33831 3.40786 6.42868 3.25719L7.15008 2.05449C7.54244 1.40043 8.24923 1.0002 9.01196 1.0002C9.99695 1.0002 10.8159 1.63679 10.9247 2.50398C10.926 2.51428 10.9276 2.52454 10.9295 2.53475C11.1571 3.73709 10.6576 4.98601 9.72619 6.23155C8.79983 7.47032 7.50624 8.62474 6.30328 9.61078C6.12594 9.75614 5.87188 9.7561 5.69455 9.61063C4.49248 8.62455 3.19934 7.47017 2.2733 6.23144C1.3422 4.98593 0.842902 3.73714 1.07088 2.5349C1.07283 2.52465 1.07445 2.51434 1.07575 2.50398C1.18453 1.63679 2.0035 1.0002 2.98849 1.0002C3.75114 1.0002 4.45786 1.40035 4.85025 2.0543C4.85029 2.05437 4.85033 2.05443 4.85036 2.05449L5.57101 3.25702Z" stroke="white" stroke-linejoin="round"/>
</svg>
