<svg width="25" height="25" viewBox="0 0 25 25" fill="none" xmlns="http://www.w3.org/2000/svg">
<path d="M5.625 16.5C5.625 14.9122 6.91218 13.625 8.5 13.625H11.375V16.5C11.375 18.0878 10.0878 19.375 8.5 19.375C6.91218 19.375 5.625 18.0878 5.625 16.5Z" stroke="white" stroke-width="1.25" stroke-linejoin="round"/>
<path d="M5.625 8.5C5.625 6.91218 6.91218 5.625 8.5 5.625C10.0878 5.625 11.375 6.91218 11.375 8.5V11.375H8.5C6.91218 11.375 5.625 10.0878 5.625 8.5Z" stroke="white" stroke-width="1.25" stroke-linejoin="round"/>
<path d="M13.625 13.625H16.5C18.0878 13.625 19.375 14.9122 19.375 16.5C19.375 18.0878 18.0878 19.375 16.5 19.375C14.9122 19.375 13.625 18.0878 13.625 16.5V13.625Z" stroke="white" stroke-width="1.25" stroke-linejoin="round"/>
<path d="M13.625 8.5C13.625 6.91218 14.9122 5.625 16.5 5.625C18.0878 5.625 19.375 6.91218 19.375 8.5C19.375 10.0878 18.0878 11.375 16.5 11.375H13.625V8.5Z" stroke="white" stroke-width="1.25" stroke-linejoin="round"/>
</svg>
